# xmcd CD database file generated by Grip 2.92
# 
# Track frame offsets:
#       150
#       10559
#       32127
#       47530
#       72266
#       96602
#       110707
#       134669
#       161638
#       183945
#       195426
#       211813
#       220058
#       235237
# 
# Disc length: 3275 seconds
# 
# Revision: 3
# Processed by: cddbd v1.4PL0 Copyright (c) Steve Scherf et al.
# Submitted via: Grip 2.92
# 
DISCID=c40cc90e
DTITLE=Redheaded Stepchild - folks 'round here
DYEAR=1900
DGENRE=
TTITLE0=One Day Before I Die
TTITLE1=Hold That Tiger
TTITLE2=East Jackson Blues
TTITLE3=Gi Gi
TTITLE4=Poor Ellen
TTITLE5=Rabbit in a Log
TTITLE6=Under the Moon
TTITLE7=Ruben Train
TTITLE8=Coal Miner's Dream
TTITLE9=Lilybugs
TTITLE10=Blue Yodel
TTITLE11=folks 'round here
TTITLE12=Old Marge
TTITLE13=Hold That Tiger (2)
EXTD=
EXTT0=
EXTT1=
EXTT2=
EXTT3=
EXTT4=
EXTT5=
EXTT6=
EXTT7=
EXTT8=
EXTT9=
EXTT10=
EXTT11=
EXTT12=
EXTT13=
PLAYORDER=
